<svg xmlns="http://www.w3.org/2000/svg" viewBox="0 0 241.62 224.58"><defs><style>.cls-1{fill:#e60a54;}</style></defs><title>Asset 2</title><g id="Layer_2" data-name="Layer 2"><g id="Layer_1-2" data-name="Layer 1"><path class="cls-1" d="M120.81,17.66C134.35,6.82,151.34.06,168.79,0,187.19-.44,205.92,6.41,219,19.5c12.85,12.57,20.52,30,22.3,47.78.72,11.09.37,22.37-2.54,33.16a77.71,77.71,0,0,1-28.24,42.94c-9.06,6.57-20.39,11.06-31.73,9.5-9.34-2-18.49-7.85-22.22-16.93-3.1-7.26-2.9-15.36-2.19-23.06,1.12-7.91,3.44-15.59,4.93-23.43.38-3.27.75-7.06-1.44-9.82-3.42-4.85-11.24-5.55-15.52-1.47-2.82,2.39-3.89,6.08-4.66,9.56-3.67,15.91-7.46,31.79-11,47.73a205.47,205.47,0,0,1-21.35.1c3.12-15.36,7.06-30.55,10.37-45.87.74-3.48.67-7.43-1.54-10.39A10.73,10.73,0,0,0,103,75.92c-4.08,1-7,4.73-8,8.62-4.12,17-7.66,34.11-12,51.06-7,.22-14.09.26-21.13-.09,2.89-13.73,6.33-27.35,9.41-41,.68-4,.82-8.41-1-12.18s-5-6.77-8.16-9.57C63.33,66.53,66.6,61.08,70,55.87A38.5,38.5,0,0,1,82.94,64c4.22-3.41,8.71-6.69,14-8.15A33.56,33.56,0,0,1,127.76,63c6.09-5.24,14-8.58,22.07-8.24,11.88-.48,23.69,6.75,28.4,17.7,2.91,6.09,2.65,13.09,1.85,19.62-1.44,7.08-3.2,14.1-4.62,21.19-.91,4.84-1.39,10.17,1,14.67a11.58,11.58,0,0,0,13.31,5.55c8.27-2.18,14.58-8.67,19.39-15.45C219,103.5,221.81,85.28,220.3,68.08c-1.55-13.54-7.67-26.81-18.08-35.79-9.88-8.65-23.48-12.22-36.42-11.23-17,1.19-32.58,9.8-45,21.08C109.38,31.77,95.38,23.62,79.89,21.52c-14.85-2.27-31.08,1.55-42,12.19C24.2,46.59,18.94,66.59,21.56,84.86,24.71,104.07,35.48,121,47.7,135.77c20.93,24.8,46.66,45,73.14,63.54,12.46-8.6,24.52-17.79,36.19-27.43,2.26-1.73,4.14-4.11,6.83-5.18,3.84,1,7.46,2.74,11.38,3.52,4.24,1.08,8.64,1,13,1.3-2.05,3.09-5,5.38-7.77,7.77-16.29,14.6-34,27.52-51.78,40.19-2.58,1.78-5,3.9-8,5.1a10.73,10.73,0,0,1-2.44-1.34C89.82,203.17,61.48,182.38,38,156.5,20.35,137,5,114,.83,87.54-1.91,68.06,2.1,47.42,13.16,31A68.38,68.38,0,0,1,43.69,5.47,75.71,75.71,0,0,1,103.46,6.9a91.81,91.81,0,0,1,17.35,10.76Z"/></g></g></svg>